<svg xmlns="http://www.w3.org/2000/svg" width="29.939" height="29.939" viewBox="0 0 29.939 29.939"><defs><style>.a{fill:#fff;}</style></defs><g transform="translate(0 0)"><rect class="a" width="29.939" height="29.939" rx="6"/></g><g transform="translate(6 5.615)"><path d="M206.043,184.773h-3.879V176.6a1.729,1.729,0,0,0-.237-1.027,1.129,1.129,0,0,0-.975-.365,2.02,2.02,0,0,0-2.079,1.415v8.149H194.8v-13.3h4.078v1.053a6.569,6.569,0,0,1,1.077-.564,6.335,6.335,0,0,1,2.413-.48,3.565,3.565,0,0,1,2.886,1.472,6.22,6.22,0,0,1,.992,3.758v8.064Z" transform="translate(-188.702 -165.996)"/><path d="M81.85,70.124a1.932,1.932,0,0,1,0-3.864h0a1.947,1.947,0,0,1,1.361.571,1.913,1.913,0,0,1,.565,1.356,1.932,1.932,0,0,1-1.928,1.937Z" transform="translate(-79.804 -66.26)"/><path d="M81.553,184.772h-3.89v-13.3h4.09v13.3Z" transform="translate(-77.663 -165.996)"/></g></svg>