<svg xmlns="http://www.w3.org/2000/svg" width="29.939" height="29.939" viewBox="0 0 29.939 29.939"><defs><style>.a{fill:#fff;}</style></defs><g transform="translate(0 0)"><rect class="a" width="29.939" height="29.939" rx="6"/></g><g transform="translate(10 5.621)"><path d="M160.189,72.426h2.265V69.544a.2.2,0,0,1,0-.026,4.361,4.361,0,0,1,.638-2.274,2.383,2.383,0,0,1,2.1-.984h3.628a.2.2,0,0,1,.2.2v2.9a.2.2,0,0,1-.2.2h-1.432a1.289,1.289,0,0,0-.826.205l-.128-.155.128.155-.012.009a1.034,1.034,0,0,0-.281.763h0v1.881h2.551a.2.2,0,0,1,.2.2V75.71a.2.2,0,0,1-.2.2h-2.551v9.048a.2.2,0,0,1-.2.2h-3.414a.2.2,0,0,1-.2-.2V75.911h-2.265a.2.2,0,0,1-.2-.2V72.627A.2.2,0,0,1,160.189,72.426Z" transform="translate(-159.988 -66.26)"/></g></svg>