<svg xmlns="http://www.w3.org/2000/svg" width="398" height="73" viewBox="0 0 397.742 72.113" fill="#161615"><path d="M31.844 14.043C28.58 7.813 24.623 6.13 20.37 6.13c-6.43 0-9.593 5.243-9.593 10.1 0 16.914 30.164 11.47 30.164 34.32 0 12.46-8.6 20.274-19.78 20.274-11.574 0-18.892-7.9-21.167-18.692l5.64-3.365c2.277 8.2 5.935 15.925 15.53 15.925 7.417 0 12.955-4.65 12.955-13.945 0-17.2-29.87-12.858-29.87-33.73 0-10.285 7.418-17 16.122-17 10.088 0 13.55 4.747 16.814 10.68zM116.032.8h47.87v6.134h-20.67v63.1h-6.528v-63.1h-20.67zm274.096 0l-16.514 32.738L357.1.8h-7.614l20.867 39.168v30.07h6.528v-30.07L397.744.8zM254.733 2.876h3.917l24.08 66.64h-3.952l-8.145-23.22h.062l-14-39.723-13.384 38-.564 1.73h.007l-8.137 23.22h-3.962zm-1.826-2.6l-25.963 71.837h9.5l20.24-57.728L267.022 43.7h-.046l9.962 28.413h9.492L260.476.28z"/></svg>